<svg width="960" height="720" viewBox="0 0 960 720" fill="none" xmlns="http://www.w3.org/2000/svg">
<rect width="960" height="720" rx="32" fill="#F8FAFC"/>
<rect x="80" y="120" width="800" height="480" rx="16" fill="white" stroke="#E2E8F0"/>
<rect x="112" y="160" width="736" height="64" rx="8" fill="#F1F5F9"/>
<rect x="112" y="256" width="112" height="80" rx="12" fill="#EFF6FF" stroke="#DBEAFE"/>
<rect x="240" y="256" width="112" height="80" rx="12" fill="#EFF6FF" stroke="#DBEAFE"/>
<rect x="368" y="256" width="112" height="80" rx="12" fill="#DCFAE6" stroke="#86EFAC"/>
<rect x="496" y="256" width="112" height="80" rx="12" fill="#EFF6FF" stroke="#DBEAFE"/>
<rect x="624" y="256" width="112" height="80" rx="12" fill="#FFE4E6" stroke="#FDA4AF"/>
<rect x="752" y="256" width="96" height="80" rx="12" fill="#EFF6FF" stroke="#DBEAFE"/>
<rect x="112" y="352" width="160" height="80" rx="12" fill="#EFF6FF" stroke="#DBEAFE"/>
<rect x="288" y="352" width="160" height="80" rx="12" fill="#EFF6FF" stroke="#DBEAFE"/>
<rect x="464" y="352" width="160" height="80" rx="12" fill="#FFE4E6" stroke="#FDA4AF"/>
<rect x="640" y="352" width="208" height="80" rx="12" fill="#EFF6FF" stroke="#DBEAFE"/>
<rect x="112" y="448" width="736" height="112" rx="12" fill="#F8FAFC" stroke="#E2E8F0"/>
<rect x="136" y="472" width="200" height="24" rx="6" fill="#CBD5E1"/>
<rect x="136" y="504" width="280" height="16" rx="4" fill="#E2E8F0"/>
<rect x="688" y="472" width="144" height="40" rx="10" fill="#2563EB"/>
</svg>
